<svg viewBox="0 0 512 512" fill="currentColor"
  xmlns="http://www.w3.org/2000/svg">
  <path fill-rule="evenodd" clip-rule="evenodd" d="M147.618 496.497C147.658 491.676 148.137 486.967 148.617 482.252C148.994 478.549 149.371 474.843 149.536 471.076C149.67 468.011 149.785 464.938 149.901 461.861V461.86C150.361 449.568 150.824 437.207 152.512 425.061C153.667 416.746 154.497 408.022 154.702 399.64C154.722 398.831 154.874 397.883 155.032 396.897L155.033 396.897C155.326 395.073 155.639 393.123 155.17 391.698C154.697 390.26 152.866 388.924 151.285 387.771L151.284 387.77C150.622 387.288 150.005 386.837 149.548 386.424C147.01 384.12 144.445 381.845 141.881 379.57C139.496 377.454 137.11 375.337 134.746 373.199L134.157 372.666C133.909 372.442 133.66 372.217 133.411 371.992L133.41 371.992C125.36 364.721 116.353 356.586 110.672 347.427C108.909 344.586 108.024 341.113 107.174 337.777L107.174 337.776C106.873 336.595 106.576 335.43 106.246 334.318C105.9 333.15 105.45 331.987 104.999 330.82L104.998 330.82C104.256 328.9 103.508 326.969 103.211 324.986H102.246C102.163 322.118 101.222 319.487 100.279 316.85C99.796 315.499 99.3121 314.145 98.943 312.758C98.336 310.477 97.7035 308.169 97.0665 305.845C94.9759 298.216 92.8366 290.409 91.3901 282.803C89.7728 274.299 88.81 264.792 89.4037 256.124C89.5182 254.45 89.861 252.809 90.2036 251.169C90.5289 249.612 90.8542 248.055 90.9837 246.471C92.4805 246.81 93.4402 247.644 94.4656 248.536C94.8922 248.907 95.3302 249.288 95.823 249.647C97.746 251.049 99.5921 252.556 101.443 254.066L101.443 254.067L101.445 254.068C102.877 255.237 104.311 256.408 105.786 257.534C111.004 261.519 116.142 265.621 121.283 269.727L121.284 269.727C127.747 274.888 134.216 280.053 140.86 284.998C142.821 286.457 144.734 287.993 146.646 289.528C147.718 290.389 148.79 291.25 149.87 292.096C150.157 292.321 150.472 292.602 150.807 292.9C151.799 293.783 152.962 294.818 154.053 295.008C155.067 295.185 156.16 294.302 157.078 293.561C157.379 293.318 157.661 293.09 157.915 292.92L167.247 286.694C170.345 284.619 173.452 282.447 176.582 280.26L176.583 280.259C185.507 274.024 194.62 267.656 204.252 263.002C206.611 261.862 209.662 261.608 212.42 261.379L212.422 261.379L212.423 261.379C213.043 261.327 213.648 261.277 214.227 261.218C217.722 260.863 221.219 260.397 224.711 259.932L224.717 259.931L224.723 259.93C226.375 259.71 228.025 259.49 229.673 259.283C233.934 258.745 238.194 258.066 242.455 257.387L242.457 257.386C247.526 256.578 252.595 255.77 257.668 255.2C260.763 254.853 263.89 254.616 267.022 254.379C272.415 253.971 277.821 253.563 283.089 252.584V252.906C279.883 253.847 276.808 256.013 273.93 258.04C273.105 258.621 272.296 259.191 271.505 259.717C264.31 264.5 257.178 269.421 250.882 275.341C230.135 294.841 210.178 314.57 200.49 342.04C197.147 351.52 194.92 361.56 194.92 371.645C194.92 372.154 194.861 372.882 194.793 373.715L194.793 373.716C194.582 376.3 194.289 379.888 195.436 381.063C196.508 382.163 198.907 382.753 200.81 383.221C201.373 383.36 201.893 383.488 202.321 383.615C208.248 385.375 215.142 385.809 221.307 385.118C222.499 384.984 223.645 384.768 224.786 384.552L224.787 384.552L224.788 384.552C226.595 384.211 228.386 383.872 230.316 383.872L218.54 441.472L211.81 471.398L208.113 488.774L211.38 481.373L219.076 460.135L242.787 398.674L250.28 378.724L252.52 372.61C249.815 372.246 247.087 371.822 244.347 371.397L244.345 371.397C237.545 370.341 230.669 369.273 223.881 369.073C221.217 368.996 214.097 368.33 212.627 365.791C211.454 363.765 212.196 360.32 212.868 357.201C213.236 355.494 213.583 353.886 213.584 352.659H214.549C216.108 342.056 221.891 331.496 227.277 322.412C242.288 297.094 265.301 277.178 289.525 260.95C290.131 260.544 290.74 260.136 291.352 259.725L291.42 259.679C300.804 253.379 310.781 246.68 321.382 242.87C327.432 240.696 334.095 239.506 340.526 238.358C341.77 238.136 343.005 237.915 344.225 237.689C345.726 237.411 347.221 237.016 348.722 236.62C350.842 236.06 352.977 235.496 355.169 235.25C357.186 235.023 359.234 234.889 361.288 234.755H361.288C365.29 234.494 369.317 234.231 373.189 233.277V232.956L372.577 232.895L372.577 232.895C366.63 232.304 360.396 231.684 354.525 230.51C353.909 230.387 353.253 230.293 352.585 230.197C350.919 229.958 349.177 229.708 347.781 228.967C344.479 227.216 340.653 221.654 340.457 217.832C340.346 215.672 341.36 213.323 342.287 211.177L342.287 211.176L342.287 211.175C342.591 210.472 342.886 209.79 343.128 209.144C344.182 206.321 345.465 203.525 346.751 200.722L346.751 200.722C348.592 196.708 350.44 192.681 351.629 188.549C349.379 189.599 347.504 191.675 345.691 193.683C344.772 194.7 343.869 195.7 342.941 196.539C335.46 203.307 326.897 210.885 316.877 213.404C314.466 214.01 312.007 213.665 309.587 213.326C308.902 213.23 308.221 213.134 307.545 213.061C301.936 212.451 296.301 211.303 290.761 210.174L290.748 210.171L290.735 210.168L289.847 209.987C288.878 209.79 287.94 209.477 287.001 209.165C285.724 208.739 284.445 208.313 283.089 208.178V207.213C276.299 206.044 269.119 202.428 262.791 199.24C262.369 199.027 261.951 198.816 261.536 198.608C261.318 198.499 261.102 198.39 260.886 198.282C260.336 198.007 259.594 197.729 258.792 197.428C256.865 196.705 254.591 195.851 253.803 194.602C253.2 193.647 253.052 192.317 252.912 191.07C252.851 190.522 252.792 189.991 252.697 189.515C252.254 187.294 251.941 185.066 251.627 182.837C251.337 180.771 251.046 178.704 250.652 176.643C249.861 172.506 249.624 168.307 249.624 164.094C249.624 163.825 249.616 163.547 249.607 163.264C249.564 161.761 249.516 160.13 250.662 159.043C252.124 157.657 254.915 157.005 257.306 156.447C258.144 156.251 258.934 156.067 259.599 155.866C267.582 153.461 275.653 151.241 283.733 149.138C299.255 145.097 314.696 140.601 330.126 136.108L330.13 136.107C336.975 134.113 343.818 132.121 350.664 130.169C351.784 129.85 352.904 129.529 354.024 129.209C359.438 127.662 364.851 126.114 370.293 124.649C370.697 124.54 371.104 124.427 371.514 124.313C374.561 123.469 377.746 122.587 380.912 122.998C386.678 123.748 393.754 125.235 397.899 129.693C400.291 132.267 401.537 137.023 402.625 141.182L402.625 141.182L402.626 141.183L402.626 141.184L402.626 141.185C403.031 142.73 403.414 144.193 403.826 145.43C406.092 152.245 408.515 159.009 410.937 165.771C412.694 170.678 414.452 175.583 416.147 180.505C417.032 183.071 417.919 185.634 418.805 188.196C424.904 205.83 430.983 223.402 436.217 241.322C436.601 242.633 436.959 243.986 437.321 245.349L437.321 245.35L437.321 245.352L437.322 245.354L437.322 245.355C438.118 248.357 438.928 251.412 440.049 254.193C440.251 254.695 440.484 255.228 440.727 255.784C441.908 258.491 443.323 261.733 442.53 264.49C441.799 267.035 439.083 269.587 436.854 271.681C436.289 272.212 435.756 272.714 435.293 273.179C432.579 275.907 429.898 278.661 427.217 281.414L427.211 281.421L427.205 281.427C424.231 284.482 421.258 287.536 418.239 290.555C408.712 300.082 399.04 309.447 389.373 318.806C384.266 323.751 379.16 328.695 374.077 333.661C371.985 335.706 369.991 337.87 367.994 340.038L367.993 340.039L367.992 340.04C365.375 342.88 362.754 345.725 359.902 348.312C357.304 350.669 354.833 353.188 352.361 355.708L352.36 355.709C349.393 358.733 346.425 361.759 343.234 364.507C340.563 366.808 338.311 369.096 335.855 371.645C335.533 371.979 335.163 372.316 334.782 372.664C333.752 373.604 332.642 374.615 332.194 375.828C331.445 377.861 332.027 380.189 332.587 382.431C332.908 383.714 333.222 384.969 333.275 386.125C333.725 395.93 334.517 405.734 336.1 415.407C336.475 417.693 336.549 420.049 336.623 422.401C336.675 424.049 336.727 425.696 336.882 427.313C337.387 432.598 338.068 437.868 338.75 443.141L338.751 443.145C339.302 447.409 339.853 451.674 340.312 455.952C340.581 458.475 340.69 461.032 340.798 463.588C340.918 466.411 341.038 469.233 341.374 472.012C341.768 475.278 342.06 478.57 342.351 481.867L342.352 481.871L342.352 481.876L342.352 481.878C342.641 485.143 342.931 488.414 343.321 491.67C343.496 493.127 343.734 494.554 343.97 495.975C344.423 498.696 344.872 501.391 344.872 504.22C350.864 503.105 356.584 500.396 362.148 497.761L362.15 497.76C363.153 497.285 364.151 496.812 365.144 496.352C380.461 489.253 394.221 480.356 407.797 470.516C479.436 418.602 519.109 330.411 510.945 242.609C509.687 229.067 508.445 216.034 505.201 202.708C484.507 117.663 419.195 48.0102 336.184 20.3706C306.798 10.5858 274.784 6.68574 243.831 8.0411C148.821 12.2021 58.5844 72.6235 20.9272 160.876C12.1821 181.37 5.83037 203.259 2.27561 225.233C-0.574437 242.85 -0.228838 260.9 0.549559 278.649C3.51545 346.281 34.709 411.716 86.0362 456.171C100.695 468.868 116.359 481.563 134.074 489.878C135.603 490.595 137.117 491.51 138.647 492.433L138.648 492.434C141.515 494.165 144.437 495.93 147.618 496.497ZM368.684 116.148C368.367 112.538 366.279 108.509 364.368 104.823L364.368 104.821C363.621 103.381 362.901 101.993 362.326 100.702C360.771 97.2207 359.274 93.7116 357.779 90.2057L357.776 90.2012C354.456 82.4175 351.143 74.6503 347.221 67.2368C345.451 63.8951 343.672 60.5028 342.111 57.0636C341.947 56.7023 341.811 56.3047 341.674 55.9012L341.674 55.9004C341.27 54.7148 340.849 53.4772 339.627 52.9506C337.22 51.9136 333.68 53.2559 330.813 54.3428C329.951 54.6698 329.149 54.9737 328.458 55.1828C323.201 56.7711 317.853 58.2593 312.52 59.7436C309.131 60.6869 305.747 61.6287 302.396 62.5935C294.511 64.8635 287.248 67.6176 279.616 70.5116L279.616 70.5118L279.228 70.659C278.701 70.8587 278.049 71.0677 277.335 71.2964C274.738 72.1283 271.33 73.22 270.227 75.0645C269.175 76.8219 270.578 79.6708 271.558 81.6601C271.743 82.036 271.913 82.3811 272.049 82.6825C273.597 86.1131 275.341 89.4607 277.08 92.8006L277.081 92.8011L277.081 92.802C278.617 95.7501 280.149 98.6922 281.541 101.68C283.076 104.973 284.919 108.133 286.765 111.296L286.765 111.296L286.766 111.297C289.093 115.285 291.423 119.279 293.139 123.549C294.226 126.255 295.536 128.704 296.926 131.272C297.05 131.501 297.175 131.772 297.308 132.059C297.729 132.968 298.225 134.039 298.982 134.452C300.038 135.026 302.073 134.313 303.565 133.79C303.979 133.645 304.351 133.515 304.649 133.431C306.282 132.97 307.922 132.548 309.561 132.126L309.562 132.126C312.778 131.299 315.99 130.473 319.129 129.352C323.387 127.833 327.874 126.869 332.367 125.905C335.047 125.329 337.73 124.753 340.367 124.058C344.675 122.924 348.968 121.676 353.253 120.43L353.254 120.43C358.403 118.933 363.542 117.439 368.684 116.148ZM239.648 185.975H239.326C232.968 176.374 226.531 166.827 220.103 157.293L220.103 157.292L220.101 157.289C214.615 149.153 209.136 141.026 203.715 132.881C200.591 128.185 197.728 123.29 194.92 118.4C193.824 116.493 192.002 113.295 192.224 111C192.34 109.799 193.514 108.867 194.514 108.074C194.776 107.866 195.026 107.667 195.242 107.476C197.334 105.622 199.618 104.017 201.902 102.413C202.905 101.708 203.909 101.003 204.895 100.277C216.102 92.0351 227.994 87.6064 240.907 83.1104C245.294 81.5829 249.763 80.7537 254.45 80.7517C254.797 80.7516 255.185 80.7288 255.591 80.7049C256.844 80.6313 258.278 80.547 259.245 81.0825C260.371 81.707 261.082 83.2354 261.671 84.4996L261.672 84.5011C261.796 84.7685 261.915 85.0241 262.032 85.2567C263.778 88.7347 265.417 92.2646 267.055 95.7927L267.093 95.8756C268.615 99.15 270.063 102.473 271.509 105.794L271.509 105.794C273.501 110.366 275.491 114.934 277.67 119.366C278.713 121.486 279.861 123.6 281.014 125.723L281.014 125.724C283.203 129.755 285.41 133.82 286.951 138.029L285.985 138.995C277.5 140.433 268.922 143.337 260.527 146.18L260.526 146.18C257.289 147.276 254.078 148.363 250.911 149.353C250.234 149.565 249.447 149.775 248.603 150C244.985 150.964 240.313 152.209 238.728 155.085C237.587 157.154 237.646 159.919 237.697 162.359C237.707 162.846 237.717 163.319 237.718 163.772C237.719 167.904 238.215 172.005 238.711 176.102C239.109 179.39 239.507 182.677 239.648 185.975ZM258.312 242.931C257.831 240.688 256.617 238.982 255.393 237.263C254.699 236.289 254.002 235.31 253.434 234.225C249.711 227.124 245.924 220.194 241.833 213.272C240.899 211.692 239.966 210.111 239.033 208.531C227.016 188.187 215.023 167.882 202.222 148.005C197.635 140.881 192.972 133.82 188.27 126.767C187.868 126.163 187.431 125.422 186.961 124.625C185.506 122.154 183.737 119.151 181.714 118.088C178.395 116.343 173.537 118.543 169.673 120.292C168.544 120.803 167.499 121.276 166.603 121.601C155.183 125.738 144.709 133.237 135.942 141.595C132.618 144.764 128.654 148.595 126.712 152.831C125.082 156.385 126.055 158.268 127.441 160.95C127.739 161.528 128.057 162.143 128.372 162.819C130.574 167.551 133.296 171.907 136.056 176.324C136.457 176.965 136.858 177.607 137.259 178.252C145.175 190.995 154.406 202.675 163.636 214.354L163.637 214.354C168.414 220.399 173.191 226.443 177.785 232.634C177.935 232.836 178.085 233.037 178.234 233.239L178.283 233.305C182.085 238.433 185.91 243.593 190.737 247.85C191.188 248.247 191.658 248.782 192.15 249.341C193.193 250.526 194.333 251.821 195.592 252.16C199.623 253.245 204.3 252.331 208.625 251.487C210.119 251.195 211.571 250.911 212.94 250.721L213.644 250.623C223.829 249.208 233.977 247.798 244.153 245.951C246.031 245.61 247.907 245.126 249.786 244.642C252.613 243.912 255.449 243.18 258.312 242.931ZM96.0131 180.008C100.997 175.714 106.711 170.79 113.187 169.409C118.655 168.243 121.323 171.69 124.359 175.613C124.458 175.741 124.558 175.87 124.659 176C130.455 183.474 136.124 190.965 141.785 198.525C147.693 206.415 153.502 214.372 159.305 222.321C164.567 229.53 169.824 236.731 175.145 243.868C176.234 245.328 177.359 246.754 178.484 248.18C180.359 250.556 182.234 252.932 183.941 255.468C184.211 255.869 184.504 256.236 184.793 256.596C185.588 257.591 186.341 258.533 186.437 259.985C186.608 262.588 183.277 265.339 181.16 267.088C180.904 267.3 180.665 267.497 180.452 267.678C173.825 273.304 164.984 280.39 156.306 282.34C152.676 283.157 149.668 280.656 146.927 278.378C146.397 277.938 145.878 277.506 145.365 277.108C137.238 270.783 129.368 264.212 121.529 257.506C109.242 246.996 97.2842 236.715 85.8347 225.233C85.0617 224.457 84.1447 223.624 83.1704 222.738C79.3027 219.221 74.5309 214.883 74.2646 210.109C73.9976 205.317 76.6207 201.522 79.3508 197.876C83.9764 191.698 88.9741 186.041 94.845 181.013C95.2298 180.683 95.6192 180.348 96.0131 180.008Z"/>
</svg>