<svg viewBox="0 0 400 400" fill="none"
  xmlns="http://www.w3.org/2000/svg">
  <path fill-rule="evenodd" clip-rule="evenodd" d="M94 50C42.0852 50 0 92.0852 0 144V256C0 307.915 42.0852 350 94 350H306C357.915 350 400 307.915 400 256V144C400 92.0852 357.915 50 306 50H94ZM175.469 150.696C175.867 148.665 177.9 147 179.989 147H191.845C193.938 147 195.321 148.665 194.918 150.696L191.719 167.041C191.319 169.078 192.711 170.735 194.796 170.735H204.522C206.611 170.735 210.024 170.914 212.101 171.126C212.101 171.126 226.284 171.29 230.887 176.4C234.636 180.561 236.265 186.291 234.609 194.742L227.198 232.603C226.802 234.638 224.763 236.303 222.672 236.303H210.511C208.42 236.303 207.034 234.638 207.434 232.603L213.73 200.485C214.128 198.452 214.575 195.095 214.729 193.023C214.729 193.023 215.008 189.223 213.477 187.593C211.951 185.956 208.694 185.142 203.716 185.142H191.969C189.876 185.142 187.85 186.803 187.443 188.838L178.878 232.603C178.478 234.638 176.445 236.303 174.354 236.303H162.496C160.405 236.303 159.023 234.638 159.42 232.603L175.469 150.696ZM66.0693 256.346C65.6678 258.377 67.0528 260.044 69.1422 260.044H81.149C83.2421 260.044 85.2752 258.377 85.6793 256.346L88.877 240C89.279 237.965 91.3079 236.303 93.4031 236.303H106.397C113.808 236.303 119.905 235.53 124.686 233.982C129.477 232.442 133.821 229.848 137.744 226.212C141.023 223.219 143.688 219.916 145.719 216.296C147.75 212.689 149.2 208.701 150.05 204.339C152.126 193.757 150.083 185.884 145.362 179.597C139.433 171.724 124.303 171.307 124.303 171.307C122.234 170.998 118.836 170.735 116.744 170.735H86.6388C84.5498 170.735 82.5168 172.404 82.1127 174.441L66.0693 256.346ZM113.114 184.83C120.568 184.83 125.527 186.197 128.012 188.925C130.491 191.652 131.085 196.339 129.79 202.972C128.429 209.885 125.817 214.824 121.95 217.778C118.083 220.73 108.069 221.799 108.069 221.799C105.987 222.025 102.576 222.208 100.489 222.208H96.1656C94.0766 222.208 92.6861 220.541 93.0881 218.508L98.9613 188.534C99.3592 186.499 101.396 184.83 103.483 184.83H113.114ZM241.261 260.044C239.168 260.044 237.782 258.377 238.184 256.346L254.226 174.441C254.622 172.404 256.661 170.735 258.748 170.735H288.854C290.943 170.735 294.344 170.998 296.412 171.307C296.412 171.307 311.408 171.942 317.474 179.597C322.362 185.763 324.24 193.757 322.165 204.339C321.31 208.701 319.865 212.689 317.832 216.296C315.795 219.916 313.142 223.219 309.853 226.212C305.937 229.848 301.585 232.442 296.808 233.982C292.014 235.53 285.921 236.303 278.513 236.303H265.512C263.428 236.303 261.39 237.965 260.99 240L257.791 256.346C257.395 258.377 255.351 260.044 253.267 260.044H241.261ZM300.132 188.925C297.643 186.197 292.679 184.83 285.233 184.83H275.595C273.506 184.83 271.471 186.499 271.069 188.534L265.199 218.508C264.804 220.541 266.18 222.208 268.273 222.208H272.6C274.695 222.208 278.104 222.025 280.179 221.799C280.179 221.799 290.193 220.73 294.066 217.778C297.939 214.824 300.54 209.885 301.9 202.972C303.197 196.339 302.604 191.652 300.132 188.925Z" fill="url(#paint0_linear_7_25)"/>
  <path d="M316.223 131.212C328.76 133.758 337.438 140.725 336.165 145.227C336.074 145.994 335.548 150.316 331.327 184.949C331.294 184.938 331.262 184.928 331.23 184.919C331.039 186.015 330.247 186.742 329.289 187.288C320.414 192.132 290.992 184.007 283.623 174.78C281.154 171.704 282.649 170.168 282.851 169.731C300.347 132.901 299.247 135.212 299.446 134.807C299.442 134.983 299.379 135.33 299.445 135.86C298.981 131.656 305.261 129.009 316.223 131.212Z" fill="#C20000"/>
  <path d="M328.949 149.035C329.214 149.035 330.316 148.894 331.241 148.678C342.856 145.932 332.993 134.617 316.223 131.212C298.712 127.693 293.148 136.549 307.939 144.364M328.949 149.035C328.949 149.035 328.391 149.069 328.194 149.097M328.949 149.035C329.273 149.035 334.457 148.635 335.888 145.781C336.028 145.522 336.102 145.235 336.196 144.958C336.129 145.541 336.459 142.84 331.327 184.949C331.294 184.938 331.262 184.928 331.23 184.919C331.039 186.015 330.247 186.742 329.289 187.288C320.414 192.132 290.992 184.007 283.623 174.78C281.154 171.704 282.649 170.168 282.851 169.731C300.347 132.901 299.247 135.212 299.446 134.807C299.44 135.074 299.296 135.74 299.683 136.84C300.832 140.032 304.932 142.775 307.939 144.364M328.194 149.097C324.532 149.559 315.642 148.41 307.939 144.364M328.194 149.097C324.568 149.555 315.652 148.415 307.939 144.364" stroke="black" stroke-width="0.5"/>
  <defs>
    <linearGradient id="paint0_linear_7_25" x1="155.379" y1="211.212" x2="316.433" y2="96.8264" gradientUnits="userSpaceOnUse">
      <stop stop-color="#3B82F6"/>
      <stop offset="0.848958" stop-color="#2DD4BF"/>
    </linearGradient>
  </defs>
</svg>
