<svg viewBox="0 0 400 400" fill="none"
  xmlns="http://www.w3.org/2000/svg">
  <path fill-rule="evenodd" clip-rule="evenodd" d="M200 379.5C310.457 379.5 400 299.135 400 200C400 100.865 310.457 20.5 200 20.5C89.5431 20.5 0 100.865 0 200C0 299.135 89.5431 379.5 200 379.5ZM173.359 146.8C173.822 144.437 176.187 142.5 178.617 142.5H192.411C194.846 142.5 196.455 144.437 195.987 146.8L192.264 165.817C191.799 168.187 193.419 170.114 195.845 170.114H207.16C209.59 170.114 213.561 170.322 215.977 170.568C215.977 170.568 232.478 170.76 237.833 176.705C242.195 181.545 244.09 188.213 242.164 198.044L233.542 242.092C233.081 244.46 230.709 246.397 228.276 246.397H214.128C211.695 246.397 210.082 244.46 210.547 242.092L217.872 204.726C218.335 202.361 218.856 198.455 219.034 196.045C219.034 196.045 219.36 191.623 217.578 189.726C215.803 187.823 212.013 186.876 206.222 186.876H192.556C190.121 186.876 187.763 188.808 187.29 191.176L177.325 242.092C176.86 244.46 174.495 246.397 172.062 246.397H158.266C155.833 246.397 154.225 244.46 154.688 242.092L173.359 146.8ZM46.0806 269.716C45.6136 272.079 47.2249 274.018 49.6557 274.018H63.6248C66.0599 274.018 68.4252 272.079 68.8954 269.716L72.6157 250.699C73.0834 248.331 75.4439 246.397 77.8814 246.397H92.9989C101.621 246.397 108.714 245.498 114.277 243.697C119.851 241.906 124.905 238.888 129.469 234.657C133.283 231.175 136.384 227.332 138.747 223.121C141.109 218.924 142.797 214.284 143.786 209.21C146.202 196.898 143.824 187.739 138.332 180.424C131.434 171.264 113.831 170.779 113.831 170.779C111.424 170.42 107.47 170.114 105.037 170.114H70.0117C67.5813 170.114 65.2161 172.056 64.7459 174.426L46.0806 269.716ZM100.813 186.512C109.486 186.512 115.256 188.103 118.146 191.276C121.03 194.45 121.722 199.902 120.215 207.619C118.631 215.662 115.593 221.408 111.094 224.845C106.595 228.279 94.9446 229.523 94.9446 229.523C92.5215 229.786 88.5528 229.999 86.1249 229.999H81.0954C78.665 229.999 77.0472 228.059 77.515 225.694L84.348 190.822C84.8109 188.454 87.181 186.512 89.6089 186.512H100.813ZM249.903 274.018C247.468 274.018 245.855 272.079 246.323 269.716L264.987 174.426C265.447 172.056 267.82 170.114 270.248 170.114H305.273C307.704 170.114 311.66 170.42 314.067 170.779C314.067 170.779 331.513 171.518 338.57 180.424C344.258 187.598 346.443 196.898 344.029 209.21C343.033 214.284 341.353 218.924 338.988 223.121C336.617 227.332 333.531 231.175 329.705 234.657C325.148 238.888 320.085 241.906 314.527 243.697C308.95 245.498 301.862 246.397 293.242 246.397H278.118C275.692 246.397 273.322 248.331 272.857 250.699L269.134 269.716C268.673 272.079 266.296 274.018 263.871 274.018H249.903ZM318.395 191.276C315.499 188.103 309.724 186.512 301.061 186.512H289.847C287.417 186.512 285.049 188.454 284.582 190.822L277.753 225.694C277.293 228.059 278.894 229.999 281.329 229.999H286.363C288.801 229.999 292.767 229.786 295.181 229.523C295.181 229.523 306.831 228.279 311.337 224.845C315.844 221.408 318.87 215.662 320.451 207.619C321.961 199.902 321.271 194.45 318.395 191.276Z" fill="url(#paint0_linear_7_25)"/>
  <path d="M339.133 125.946C354.505 131.383 364.221 141.715 361.816 147.172C361.565 148.124 360.134 153.485 348.664 196.447C348.624 196.428 348.585 196.409 348.547 196.392C348.112 197.741 346.984 198.518 345.677 199.038C333.617 203.578 297.924 188.103 290.26 175.15C287.69 170.831 289.849 169.157 290.182 168.641C318.796 125.261 316.998 127.983 317.321 127.508C317.285 127.729 317.143 128.156 317.133 128.837C317.294 123.448 325.689 121.222 339.133 125.946Z" fill="#C20000"/>
  <path d="M352.033 150.698C352.367 150.744 353.784 150.762 354.989 150.654C370.136 149.249 359.694 133.219 339.133 125.946C317.656 118.399 309.064 128.589 326.345 141.075M352.033 150.698C352.033 150.698 351.323 150.642 351.069 150.642M352.033 150.698C352.442 150.755 359.055 151.17 361.368 147.822C361.591 147.52 361.735 147.171 361.903 146.838C361.715 147.561 362.61 144.211 348.664 196.447C348.624 196.428 348.585 196.409 348.547 196.392C348.112 197.741 346.984 198.518 345.677 199.038C333.617 203.578 297.924 188.103 290.26 175.15C287.69 170.831 289.849 169.157 290.182 168.641C318.796 125.261 316.998 127.983 317.321 127.508C317.266 127.844 316.967 128.658 317.259 130.116C318.144 134.348 322.832 138.537 326.345 141.075M351.069 150.642C346.365 150.576 335.349 147.548 326.345 141.075M351.069 150.642C346.412 150.577 335.361 147.557 326.345 141.075" stroke="black" stroke-width="0.5"/>
  <defs>
    <linearGradient id="paint0_linear_7_25" x1="155.379" y1="213.417" x2="334.557" y2="107.073" gradientUnits="userSpaceOnUse">
      <stop stop-color="#3B82F6"/>
      <stop offset="0.848958" stop-color="#2DD4BF"/>
    </linearGradient>
  </defs>
</svg>
