<svg viewBox="0 0 512 512" fill="none"
  xmlns="http://www.w3.org/2000/svg">
  <path d="M96.5 1.90003C76.4 7.60003 59.7 24.7 54.6 44.6C53.2 50.2 53 71.9 53 256C53 484.1 52.5 466.3 59.8 480.5C64.6 489.8 75.2 500.4 84.5 505.2C98.5 512.5 86.8 512 256 512C425.2 512 413.5 512.5 427.5 505.2C436.8 500.4 447.4 489.8 452.2 480.5C459.5 466.5 459 479 459 301.4V141.5L317.5 3.05176e-05L210 0.100031C111.3 0.100031 102 0.30003 96.5 1.90003ZM287.2 80.7C287.6 119.8 287.7 121.8 289.9 128.5C296.1 147.7 310.6 162.4 329.5 168.7L337.5 171.4L418 172.2V457.3L415.5 461.6C413.9 464.3 411.1 467 408.2 468.7L403.5 471.5H108.5L103.8 468.7C100.9 467 98.1 464.3 96.5 461.6L94 457.3V54.7L96.5 50.4C99.3 45.7 104.5 42 109.9 40.9C111.9 40.5 152.5 40.2 200.2 40.1L286.8 40L287.2 80.7ZM368.6 130.8C356.2 131 346.8 130.7 344 130C338.2 128.5 333.5 124.9 330.7 119.7C328.6 115.8 328.5 114.1 328.2 92L327.9 68.5L388.7 130.5L368.6 130.8Z" fill="currentColor"/>
  <path d="M235 233.8L229.8 235.6C226.9 236.5 222.3 238.4 219.6 239.7L214.7 242.2L189 216.5L174.3 231.3L159.5 246L185.2 271.7L182.7 276.6C181.4 279.3 179.5 283.9 178.6 286.7L176.8 292H141V332H176.8L178.6 337.2C179.5 340.1 181.4 344.7 182.7 347.4L185.2 352.3L159.5 378L174.3 392.7L189 407.5L214.7 381.8L219.6 384.3C222.3 385.6 226.9 387.5 229.8 388.4L235 390.2V425H276L276.2 407.3L276.5 389.7L281.5 388C284.3 387 288.5 385.3 290.9 384L295.3 381.8L321 407.5L335.7 392.7L350.5 378L324.8 352.3L327.3 347.4C328.7 344.6 330.6 340.1 331.5 337.2L333.2 332H370V292H333.2L331.5 286.8C330.6 283.9 328.7 279.4 327.3 276.6L324.8 271.7L350.5 246L335.7 231.3L321 216.5L295.3 242.2L290.9 240C288.5 238.7 284.3 237 281.5 236L276.5 234.3L276.2 216.7L276 199H235V233.8ZM262.1 273C274.9 275.4 285.8 283.8 291.7 295.8C294.2 300.9 294.5 302.6 294.5 311.5C294.5 320.7 294.2 322.1 291.3 328.2C287.3 336.7 280.7 343.3 272.2 347.3C266.1 350.2 264.7 350.5 255.5 350.5C246.6 350.5 244.9 350.2 239.8 347.7C227.6 341.7 219.4 330.9 216.9 317.5C213.4 298.6 227.5 278.2 247.4 273.4C253.9 271.8 255.6 271.8 262.1 273Z" fill="currentColor"/>
</svg>